<?xml version="1.0" standalone="no"?>
<!DOCTYPE svg PUBLIC "-//W3C//DTD SVG 20010904//EN"
 "http://www.w3.org/TR/2001/REC-SVG-20010904/DTD/svg10.dtd">
<svg version="1.0" xmlns="http://www.w3.org/2000/svg"
 width="246.000000pt" height="246.000000pt" viewBox="0 0 246.000000 246.000000"
 preserveAspectRatio="xMidYMid meet">
<metadata>
Created by potrace 1.14, written by Peter Selinger 2001-2017
</metadata>
<g transform="translate(0.000000,246.000000) scale(0.100000,-0.100000)"
fill="#000000" stroke="none">
<path d="M30 1475 l0 -985 276 0 c258 0 275 -1 270 -17 -3 -10 -37 -120 -75
-245 l-69 -228 94 0 93 0 32 103 c17 56 50 165 73 242 l42 140 241 3 240 2 62
-232 c34 -128 64 -239 66 -246 3 -8 34 -12 109 -12 80 0 104 3 101 13 -13 36
-209 685 -213 705 -4 19 4 26 60 51 115 52 234 75 315 60 138 -26 201 -94 349
-372 37 -70 81 -143 98 -162 l31 -34 100 30 c55 17 102 32 104 34 2 2 -11 16
-28 31 -41 34 -108 134 -205 303 -132 230 -199 295 -339 326 l-29 6 29 22 c15
12 39 35 52 51 14 15 30 33 36 40 21 21 64 123 71 167 3 24 7 54 9 65 6 43
-25 179 -55 240 -36 74 -112 153 -173 182 -91 43 -309 48 -472 12 -22 -5 -52
-11 -67 -14 -53 -9 -204 -59 -267 -87 l-64 -29 -323 0 -324 0 -1 28 c-3 127
-1 574 4 578 3 3 187 6 409 7 l403 2 1 103 1 102 -534 0 -533 0 0 -985z m1661
123 c61 -30 87 -54 117 -110 18 -31 38 -101 35 -118 0 -3 -3 -24 -7 -47 -16
-122 -137 -251 -288 -307 -86 -32 -237 -71 -245 -63 -3 4 -43 134 -89 289 -96
325 -100 289 41 337 129 44 158 49 275 47 92 -1 112 -5 161 -28z m-943 -168
c68 0 121 -4 118 -8 -5 -9 -167 -535 -199 -649 -14 -51 -25 -73 -36 -74 -83
-4 -342 -1 -347 4 -5 5 -9 630 -5 709 1 20 39 24 221 21 69 -1 180 -2 248 -3z
m267 -97 c10 -45 4 -24 55 -203 23 -80 43 -152 45 -160 1 -8 10 -41 20 -72 9
-31 18 -68 21 -81 2 -13 11 -43 19 -67 8 -24 13 -45 10 -48 -4 -4 -367 -3
-371 1 -2 2 75 286 138 514 24 84 46 153 49 153 4 0 10 -17 14 -37z"/>
</g>
</svg>
